/* XPM */
static char *p7zip_32_xpm[] = {
/* columns rows colors chars-per-pixel */
"32 32 116 2 ",
"   c #0178DC",
".  c #0077DB",
"X  c #0075DB",
"o  c #0071DA",
"O  c #0074DA",
"+  c #006FD9",
"@  c #006ED9",
"#  c #0072DA",
"$  c #0074DB",
"%  c #0073DA",
"&  c #1A85DF",
"*  c #AFD4F2",
"=  c #CFE5F7",
"-  c #CCE4F7",
";  c #E9F3FB",
":  c #F5FAFD",
">  c #D5E8F8",
",  c #7AB8EC",
"<  c #4B9FE5",
"1  c #4199E3",
"2  c #0076DB",
"3  c #3995E2",
"4  c #D2E7F8",
"5  c #CDE4F8",
"6  c #CBE3F7",
"7  c #DDEDF9",
"8  c #B1D6F3",
"9  c #1582DE",
"0  c #0064D6",
"q  c #6DB1E9",
"w  c #E2EFF9",
"e  c #1984DE",
"r  c #83BDEC",
"t  c #A9D1F2",
"y  c #ACD2F3",
"u  c #A0CCF1",
"i  c #BEDCF5",
"p  c #E4F1FA",
"a  c #B3D6F3",
"s  c #0070DA",
"d  c #0D7EDD",
"f  c #2A8EE1",
"g  c #C5DFF5",
"h  c #DEEDF9",
"j  c #479DE4",
"k  c #057ADC",
"l  c #CDE4F7",
"z  c #A8D0F2",
"x  c #67AEE9",
"c  c #077BDC",
"v  c #DCECF9",
"b  c #7FBBEC",
"n  c #E1EFF9",
"m  c #C8E1F6",
"M  c #087BDC",
"N  c #E7F2FA",
"B  c #7EBAEC",
"V  c #E1EEFA",
"C  c #2E8FE1",
"Z  c #85BEED",
"A  c #DFEDF9",
"S  c #D7E9F8",
"D  c #62ABE8",
"F  c #97C7EF",
"G  c #BADAF4",
"H  c #B8D9F4",
"J  c #96C7EF",
"K  c #C1DEF5",
"L  c #4FA1E5",
"P  c #94C6EF",
"I  c #BFDCF5",
"U  c #1683DE",
"Y  c #F2F8FC",
"T  c #5EA9E8",
"R  c #D8EAF9",
"E  c #AAD1F2",
"W  c #499EE5",
"Q  c #288CE1",
"!  c #D9EAF8",
"~  c #7BB8EB",
"^  c #B1D5F3",
"/  c #006BD8",
"(  c #3493E2",
")  c #E0EEF9",
"_  c #D6E9F8",
"`  c #D0E6F7",
"'  c #DFEEFA",
"]  c #F1F7FC",
"[  c #E2EFFA",
"{  c #C6E0F6",
"}  c #9FCCF1",
"|  c #2E90E1",
" . c #4FA1E6",
".. c #93C5EF",
"X. c #DAEBF9",
"o. c #E4F0FB",
"O. c #C7E1F7",
"+. c #66ADE8",
"@. c #0A7DDD",
"#. c #4A9FE5",
"$. c #9ECBF0",
"%. c #C9E1F5",
"&. c #0278DC",
"*. c #99C8F0",
"=. c white",
"-. c #D1E6F8",
";. c #BFDDF5",
":. c #83BDED",
">. c #86BEEE",
",. c #7AB8EB",
"<. c #0479DC",
"1. c #006DD9",
"2. c #0F7FDD",
"3. c #1784DE",
"4. c #0A7CDD",
"5. c #0077DC",
/* pixels */
"                                                                ",
"                                                                ",
"                                                                ",
"                                                                ",
"                                                                ",
"                                                                ",
"                          . . . . .                             ",
"                      . X o o O + @ + # $ X .                   ",
"                    . % & * = - ; : > , < 1 2                   ",
"                    X 3 4 5 6 7 8 9 0 q w e 2                   ",
"                    $ r t - 7 4 y u i p a s .                   ",
"                    2 % s + @ s d f g h j #                     ",
"                            . $ k l z a x $                     ",
"                          . $ c v b n m X 2                     ",
"                        . $ M N B ; V C $ .                     ",
"                      . X . ; Z A S D # .                       ",
"                      2 s - F G H J s 2                         ",
"                    . # b K L P I s 2                           ",
"                    X U Y + T R % X .                           ",
"                  . o E W Q V 2 X .                             ",
"                  . o ! ~ ^ + / @ + # $ X 2 .                   ",
"                  2 ( ) _ ` ' ] [ { } |  .M .                   ",
"                  $ | ..X.o.O.u +.@.#.$.%.&..                   ",
"                  $ *.=.] -.;.} :.>.P ,.<.X .                   ",
"                  2 . @ 1.@ % 2.3.4.o % 2 .                     ",
"                  . . .   . . . 2 . . 5.                        ",
"                                                                ",
"                                                                ",
"                                                                ",
"                                                                ",
"                                                                ",
"                                                                "
};
